<svg xmlns="http://www.w3.org/2000/svg" xmlns:xlink="http://www.w3.org/1999/xlink" width="1920" zoomAndPan="magnify" viewBox="0 0 1440 809.999993" height="1080" preserveAspectRatio="xMidYMid meet" version="1.0"><defs><g/><clipPath id="6e754b0217"><path d="M 10 560 L 1212 560 L 1212 737.679688 L 10 737.679688 Z M 10 560 " clip-rule="nonzero"/></clipPath><clipPath id="84fc469ce4"><rect x="0" width="1202" y="0" height="178"/></clipPath><clipPath id="452f9a9116"><path d="M 0.878906 529 L 1219.601562 529 L 1219.601562 597 L 0.878906 597 Z M 0.878906 529 " clip-rule="nonzero"/></clipPath><clipPath id="8da561a47a"><path d="M 0.878906 680 L 1219.601562 680 L 1219.601562 737.679688 L 0.878906 737.679688 Z M 0.878906 680 " clip-rule="nonzero"/></clipPath><clipPath id="9bf55cbb36"><rect x="0" width="1220" y="0" height="738"/></clipPath></defs><g transform="matrix(1, 0, 0, 1, 110, 38)"><g clip-path="url(#9bf55cbb36)"><g clip-path="url(#6e754b0217)"><g transform="matrix(1, 0, 0, 1, 10, 560)"><g clip-path="url(#84fc469ce4)"><g fill="#000000" fill-opacity="1"><g transform="translate(1.643653, 125.433954)"><g><path d="M 94.8125 -76.53125 L 94.8125 -37 C 94.8125 -31.601562 93.867188 -26.539062 91.984375 -21.8125 C 90.097656 -17.09375 87.191406 -12.960938 83.265625 -9.421875 C 79.347656 -5.878906 74.410156 -3.066406 68.453125 -0.984375 C 62.503906 1.085938 55.515625 2.125 47.484375 2.125 C 40.679688 2.125 34.515625 1.273438 28.984375 -0.421875 C 23.453125 -2.117188 18.675781 -4.523438 14.65625 -7.640625 C 10.644531 -10.765625 7.457031 -14.523438 5.09375 -18.921875 C 2.738281 -23.316406 1.273438 -28.207031 0.703125 -33.59375 L 16.015625 -35.71875 C 16.390625 -33.445312 17.144531 -31.109375 18.28125 -28.703125 C 19.414062 -26.296875 21.046875 -24.125 23.171875 -22.1875 C 25.296875 -20.25 27.960938 -18.664062 31.171875 -17.4375 C 34.390625 -16.207031 38.265625 -15.59375 42.796875 -15.59375 C 51.117188 -15.59375 57.5 -17.53125 61.9375 -21.40625 C 66.375 -25.28125 68.59375 -30.425781 68.59375 -36.84375 L 68.59375 -73.5625 C 68.59375 -77.625 67.742188 -80.644531 66.046875 -82.625 C 64.347656 -84.613281 61.328125 -85.609375 56.984375 -85.609375 L 36.5625 -85.609375 L 36.5625 -99.21875 L 111.265625 -99.21875 L 111.265625 -85.609375 L 102.1875 -85.609375 C 100.019531 -85.609375 98.25 -85.085938 96.875 -84.046875 C 95.5 -83.003906 94.8125 -80.5 94.8125 -76.53125 Z M 94.8125 -76.53125 "/></g></g></g><g fill="#000000" fill-opacity="1"><g transform="translate(122.404182, 125.433954)"><g><path d="M 128.984375 -33.3125 L 150.234375 -77.953125 C 151.273438 -80.316406 151.394531 -82.179688 150.59375 -83.546875 C 149.789062 -84.921875 148.113281 -85.609375 145.5625 -85.609375 L 134.21875 -85.609375 L 134.21875 -99.21875 L 185.53125 -99.21875 L 185.53125 -85.609375 L 179.4375 -85.609375 C 176.882812 -85.609375 174.945312 -84.898438 173.625 -83.484375 C 172.300781 -82.066406 171.023438 -80.222656 169.796875 -77.953125 L 133.234375 0 L 116.21875 0 L 94.25 -47.90625 L 74.125 0 L 56.6875 0 L 18.5625 -77.953125 C 18.09375 -78.898438 17.597656 -79.820312 17.078125 -80.71875 C 16.554688 -81.613281 15.894531 -82.414062 15.09375 -83.125 C 14.289062 -83.832031 13.296875 -84.421875 12.109375 -84.890625 C 10.929688 -85.367188 9.445312 -85.609375 7.65625 -85.609375 L 1.421875 -85.609375 L 1.421875 -99.21875 L 55.421875 -99.21875 L 55.421875 -85.609375 L 51.453125 -85.609375 C 48.617188 -85.609375 46.726562 -84.945312 45.78125 -83.625 C 44.832031 -82.300781 44.972656 -80.410156 46.203125 -77.953125 L 68.453125 -33.3125 L 84.90625 -68.890625 L 80.9375 -77.953125 C 80.457031 -78.898438 79.957031 -79.820312 79.4375 -80.71875 C 78.914062 -81.613281 78.253906 -82.414062 77.453125 -83.125 C 76.648438 -83.832031 75.65625 -84.421875 74.46875 -84.890625 C 73.289062 -85.367188 71.804688 -85.609375 70.015625 -85.609375 L 68.734375 -85.609375 L 68.734375 -99.21875 L 121.75 -99.21875 L 121.75 -85.609375 L 114.515625 -85.609375 C 111.960938 -85.609375 110.191406 -84.660156 109.203125 -82.765625 C 108.210938 -80.878906 108.238281 -78.800781 109.28125 -76.53125 Z M 128.984375 -33.3125 "/></g></g></g><g fill="#000000" fill-opacity="1"><g transform="translate(311.765692, 125.433954)"><g/></g></g><g fill="#000000" fill-opacity="1"><g transform="translate(370.87039, 125.433954)"><g><path d="M 113.671875 -99.359375 L 117.5 -61.796875 L 103.890625 -60.09375 C 102.566406 -63.78125 100.75 -67.132812 98.4375 -70.15625 C 96.125 -73.175781 93.429688 -75.773438 90.359375 -77.953125 C 87.285156 -80.128906 83.878906 -81.804688 80.140625 -82.984375 C 76.410156 -84.160156 72.515625 -84.75 68.453125 -84.75 C 63.253906 -84.75 58.457031 -83.898438 54.0625 -82.203125 C 49.675781 -80.503906 45.898438 -78.140625 42.734375 -75.109375 C 39.566406 -72.085938 37.082031 -68.472656 35.28125 -64.265625 C 33.488281 -60.066406 32.59375 -55.460938 32.59375 -50.453125 C 32.59375 -44.972656 33.582031 -40.0625 35.5625 -35.71875 C 37.550781 -31.375 40.242188 -27.664062 43.640625 -24.59375 C 47.046875 -21.519531 50.96875 -19.179688 55.40625 -17.578125 C 59.851562 -15.972656 64.535156 -15.171875 69.453125 -15.171875 C 73.796875 -15.171875 77.691406 -15.640625 81.140625 -16.578125 C 84.585938 -17.523438 87.46875 -18.660156 89.78125 -19.984375 C 92.101562 -21.304688 93.878906 -22.675781 95.109375 -24.09375 C 96.335938 -25.507812 96.953125 -26.691406 96.953125 -27.640625 L 96.953125 -28.34375 C 96.953125 -28.820312 96.710938 -29.53125 96.234375 -30.46875 C 95.765625 -31.414062 94.726562 -31.890625 93.125 -31.890625 L 80.078125 -31.890625 L 80.078125 -47.203125 L 133.515625 -47.203125 L 133.515625 -31.890625 L 127.28125 -31.890625 C 126.238281 -31.890625 125.269531 -31.863281 124.375 -31.8125 C 123.476562 -31.769531 122.695312 -31.507812 122.03125 -31.03125 C 121.375 -30.5625 120.851562 -29.804688 120.46875 -28.765625 C 120.09375 -27.734375 119.90625 -26.222656 119.90625 -24.234375 L 119.90625 0 L 107.859375 0 L 103.609375 -11.625 C 101.335938 -9.070312 98.898438 -6.921875 96.296875 -5.171875 C 93.703125 -3.421875 90.796875 -2.003906 87.578125 -0.921875 C 84.367188 0.160156 80.804688 0.9375 76.890625 1.40625 C 72.972656 1.882812 68.554688 2.125 63.640625 2.125 C 55.703125 2.125 48.164062 0.921875 41.03125 -1.484375 C 33.894531 -3.898438 27.65625 -7.375 22.3125 -11.90625 C 16.976562 -16.4375 12.75 -21.9375 9.625 -28.40625 C 6.507812 -34.882812 4.953125 -42.1875 4.953125 -50.3125 C 4.953125 -58.820312 6.628906 -66.265625 9.984375 -72.640625 C 13.347656 -79.015625 17.742188 -84.328125 23.171875 -88.578125 C 28.609375 -92.835938 34.75 -96.03125 41.59375 -98.15625 C 48.445312 -100.28125 55.367188 -101.34375 62.359375 -101.34375 C 67.648438 -101.34375 72.234375 -100.941406 76.109375 -100.140625 C 79.984375 -99.335938 83.335938 -98.4375 86.171875 -97.4375 C 89.003906 -96.445312 91.410156 -95.550781 93.390625 -94.75 C 95.378906 -93.945312 97.175781 -93.546875 98.78125 -93.546875 C 100.007812 -93.546875 100.671875 -94.132812 100.765625 -95.3125 C 100.867188 -96.5 100.867188 -97.847656 100.765625 -99.359375 Z M 113.671875 -99.359375 "/></g></g></g><g fill="#000000" fill-opacity="1"><g transform="translate(506.088165, 125.433954)"><g><path d="M 76.390625 -99.21875 C 82.066406 -99.21875 87.5 -98.789062 92.6875 -97.9375 C 97.882812 -97.082031 102.421875 -95.566406 106.296875 -93.390625 C 110.171875 -91.222656 113.265625 -88.25 115.578125 -84.46875 C 117.898438 -80.6875 119.0625 -75.914062 119.0625 -70.15625 C 119.0625 -66.1875 118.398438 -62.664062 117.078125 -59.59375 C 115.753906 -56.53125 114.023438 -53.910156 111.890625 -51.734375 C 109.765625 -49.554688 107.351562 -47.78125 104.65625 -46.40625 C 101.96875 -45.039062 99.300781 -44.078125 96.65625 -43.515625 C 97.507812 -40.390625 98.90625 -36.9375 100.84375 -33.15625 C 102.78125 -29.382812 105.332031 -25.9375 108.5 -22.8125 C 111.664062 -19.695312 115.46875 -17.21875 119.90625 -15.375 C 124.34375 -13.53125 129.492188 -12.941406 135.359375 -13.609375 L 136.78125 0 C 125.34375 1.320312 115.609375 0.828125 107.578125 -1.484375 C 99.546875 -3.796875 92.859375 -7.054688 87.515625 -11.265625 C 82.179688 -15.472656 78.023438 -20.148438 75.046875 -25.296875 C 72.066406 -30.453125 69.960938 -35.25 68.734375 -39.6875 L 49.75 -39.6875 L 49.75 -22.8125 C 49.75 -19.507812 50.316406 -17.148438 51.453125 -15.734375 C 52.585938 -14.316406 54.945312 -13.609375 58.53125 -13.609375 L 66.1875 -13.609375 L 66.1875 0 L 7.09375 0 L 7.09375 -13.609375 L 16.15625 -13.609375 C 18.332031 -13.609375 20.101562 -14.125 21.46875 -15.15625 C 22.84375 -16.195312 23.53125 -18.703125 23.53125 -22.671875 L 23.53125 -76.390625 C 23.53125 -79.703125 22.960938 -82.066406 21.828125 -83.484375 C 20.691406 -84.898438 18.328125 -85.609375 14.734375 -85.609375 L 7.09375 -85.609375 L 7.09375 -99.21875 Z M 71.578125 -55.5625 C 78.285156 -55.5625 83.148438 -56.953125 86.171875 -59.734375 C 89.191406 -62.523438 90.703125 -66 90.703125 -70.15625 C 90.703125 -74.21875 89.144531 -77.453125 86.03125 -79.859375 C 82.914062 -82.273438 78.378906 -83.484375 72.421875 -83.484375 L 49.75 -83.484375 L 49.75 -55.5625 Z M 71.578125 -55.5625 "/></g></g></g><g fill="#000000" fill-opacity="1"><g transform="translate(643.857141, 125.433954)"><g><path d="M 49.75 -76.53125 L 49.75 -22.8125 C 49.75 -19.507812 50.316406 -17.148438 51.453125 -15.734375 C 52.585938 -14.316406 54.945312 -13.609375 58.53125 -13.609375 L 66.1875 -13.609375 L 66.1875 0 L 7.09375 0 L 7.09375 -13.609375 L 16.15625 -13.609375 C 18.332031 -13.609375 20.101562 -14.125 21.46875 -15.15625 C 22.84375 -16.195312 23.53125 -18.703125 23.53125 -22.671875 L 23.53125 -76.390625 C 23.53125 -79.703125 22.960938 -82.066406 21.828125 -83.484375 C 20.691406 -84.898438 18.328125 -85.609375 14.734375 -85.609375 L 7.09375 -85.609375 L 7.09375 -99.21875 L 66.1875 -99.21875 L 66.1875 -85.609375 L 57.125 -85.609375 C 54.945312 -85.609375 53.171875 -85.085938 51.796875 -84.046875 C 50.429688 -83.003906 49.75 -80.5 49.75 -76.53125 Z M 49.75 -76.53125 "/></g></g></g><g fill="#000000" fill-opacity="1"><g transform="translate(719.545115, 125.433954)"><g><path d="M 49.75 -83.34375 L 49.75 -59.109375 L 62.078125 -59.109375 C 65.390625 -59.109375 67.753906 -59.671875 69.171875 -60.796875 C 70.585938 -61.929688 71.296875 -64.296875 71.296875 -67.890625 L 71.296875 -74.125 L 84.90625 -74.125 L 84.90625 -28.203125 L 71.296875 -28.203125 L 71.296875 -35.859375 C 71.296875 -38.035156 70.773438 -39.804688 69.734375 -41.171875 C 68.691406 -42.546875 66.1875 -43.234375 62.21875 -43.234375 L 49.75 -43.234375 L 49.75 -22.8125 C 49.75 -19.507812 50.316406 -17.148438 51.453125 -15.734375 C 52.585938 -14.316406 54.945312 -13.609375 58.53125 -13.609375 L 67.609375 -13.609375 L 67.609375 0 L 7.09375 0 L 7.09375 -13.609375 L 16.15625 -13.609375 C 18.332031 -13.609375 20.101562 -14.125 21.46875 -15.15625 C 22.84375 -16.195312 23.53125 -18.703125 23.53125 -22.671875 L 23.53125 -76.390625 C 23.53125 -79.703125 22.960938 -82.066406 21.828125 -83.484375 C 20.691406 -84.898438 18.328125 -85.609375 14.734375 -85.609375 L 7.09375 -85.609375 L 7.09375 -99.21875 L 116.640625 -99.21875 L 120.90625 -62.640625 L 106.875 -61.234375 C 106.300781 -65.484375 105.210938 -69.023438 103.609375 -71.859375 C 102.003906 -74.691406 100.039062 -76.957031 97.71875 -78.65625 C 95.40625 -80.363281 92.738281 -81.570312 89.71875 -82.28125 C 86.695312 -82.988281 83.4375 -83.34375 79.9375 -83.34375 Z M 49.75 -83.34375 "/></g></g></g><g fill="#000000" fill-opacity="1"><g transform="translate(845.69171, 125.433954)"><g><path d="M 49.75 -83.34375 L 49.75 -59.109375 L 62.078125 -59.109375 C 65.390625 -59.109375 67.753906 -59.671875 69.171875 -60.796875 C 70.585938 -61.929688 71.296875 -64.296875 71.296875 -67.890625 L 71.296875 -74.125 L 84.90625 -74.125 L 84.90625 -28.203125 L 71.296875 -28.203125 L 71.296875 -35.859375 C 71.296875 -38.035156 70.773438 -39.804688 69.734375 -41.171875 C 68.691406 -42.546875 66.1875 -43.234375 62.21875 -43.234375 L 49.75 -43.234375 L 49.75 -22.8125 C 49.75 -19.507812 50.316406 -17.148438 51.453125 -15.734375 C 52.585938 -14.316406 54.945312 -13.609375 58.53125 -13.609375 L 67.609375 -13.609375 L 67.609375 0 L 7.09375 0 L 7.09375 -13.609375 L 16.15625 -13.609375 C 18.332031 -13.609375 20.101562 -14.125 21.46875 -15.15625 C 22.84375 -16.195312 23.53125 -18.703125 23.53125 -22.671875 L 23.53125 -76.390625 C 23.53125 -79.703125 22.960938 -82.066406 21.828125 -83.484375 C 20.691406 -84.898438 18.328125 -85.609375 14.734375 -85.609375 L 7.09375 -85.609375 L 7.09375 -99.21875 L 116.640625 -99.21875 L 120.90625 -62.640625 L 106.875 -61.234375 C 106.300781 -65.484375 105.210938 -69.023438 103.609375 -71.859375 C 102.003906 -74.691406 100.039062 -76.957031 97.71875 -78.65625 C 95.40625 -80.363281 92.738281 -81.570312 89.71875 -82.28125 C 86.695312 -82.988281 83.4375 -83.34375 79.9375 -83.34375 Z M 49.75 -83.34375 "/></g></g></g><g fill="#000000" fill-opacity="1"><g transform="translate(971.838214, 125.433954)"><g><path d="M 49.75 -76.53125 L 49.75 -22.8125 C 49.75 -19.507812 50.316406 -17.148438 51.453125 -15.734375 C 52.585938 -14.316406 54.945312 -13.609375 58.53125 -13.609375 L 66.1875 -13.609375 L 66.1875 0 L 7.09375 0 L 7.09375 -13.609375 L 16.15625 -13.609375 C 18.332031 -13.609375 20.101562 -14.125 21.46875 -15.15625 C 22.84375 -16.195312 23.53125 -18.703125 23.53125 -22.671875 L 23.53125 -76.390625 C 23.53125 -79.703125 22.960938 -82.066406 21.828125 -83.484375 C 20.691406 -84.898438 18.328125 -85.609375 14.734375 -85.609375 L 7.09375 -85.609375 L 7.09375 -99.21875 L 66.1875 -99.21875 L 66.1875 -85.609375 L 57.125 -85.609375 C 54.945312 -85.609375 53.171875 -85.085938 51.796875 -84.046875 C 50.429688 -83.003906 49.75 -80.5 49.75 -76.53125 Z M 49.75 -76.53125 "/></g></g></g><g fill="#000000" fill-opacity="1"><g transform="translate(1047.526188, 125.433954)"><g><path d="M 113.109375 -76.390625 C 113.109375 -79.703125 112.539062 -82.066406 111.40625 -83.484375 C 110.269531 -84.898438 107.90625 -85.609375 104.3125 -85.609375 L 98.078125 -85.609375 L 98.078125 -99.21875 L 146.546875 -99.21875 L 146.546875 -85.609375 L 137.484375 -85.609375 C 135.304688 -85.609375 133.53125 -85.085938 132.15625 -84.046875 C 130.789062 -83.003906 130.109375 -80.5 130.109375 -76.53125 L 130.109375 0 L 112.671875 0 L 40.53125 -73.5625 L 40.53125 -22.8125 C 40.53125 -19.507812 41.097656 -17.148438 42.234375 -15.734375 C 43.367188 -14.316406 45.734375 -13.609375 49.328125 -13.609375 L 55.5625 -13.609375 L 55.5625 0 L 7.09375 0 L 7.09375 -13.609375 L 16.15625 -13.609375 C 18.332031 -13.609375 20.101562 -14.125 21.46875 -15.15625 C 22.84375 -16.195312 23.53125 -18.703125 23.53125 -22.671875 L 23.53125 -76.390625 C 23.53125 -79.703125 22.960938 -82.066406 21.828125 -83.484375 C 20.691406 -84.898438 18.328125 -85.609375 14.734375 -85.609375 L 7.09375 -85.609375 L 7.09375 -99.21875 L 52.71875 -99.21875 L 113.109375 -37.703125 Z M 113.109375 -76.390625 "/></g></g></g></g></g></g><g clip-path="url(#452f9a9116)"><path stroke-linecap="butt" transform="matrix(0.809581, 0.00198855, -0.00198855, 0.809581, 4.186753, 558.385518)" fill="none" stroke-linejoin="miter" d="M -0.000131812 3.499626 L 1496.625758 3.500172 " stroke="#000000" stroke-width="7" stroke-opacity="1" stroke-miterlimit="4"/></g><g clip-path="url(#8da561a47a)"><path stroke-linecap="butt" transform="matrix(0.809581, 0.00198855, -0.00198855, 0.809581, 4.186753, 709.386478)" fill="none" stroke-linejoin="miter" d="M -0.000134726 3.498439 L 1496.625756 3.498985 " stroke="#000000" stroke-width="7" stroke-opacity="1" stroke-miterlimit="4"/></g><path fill="#000000" d="M 19.046875 393.835938 C 18.007812 327.988281 59.109375 264.832031 94.222656 240.953125 C 117.839844 224.894531 125.648438 227.816406 142.863281 227.738281 C 152.839844 227.695312 162.148438 229.148438 170.953125 234.21875 C 206.347656 254.589844 214.554688 306.699219 187.703125 335.15625 C 177.398438 346.082031 163.449219 350.808594 148.664062 349.582031 C 138.769531 348.765625 129.378906 346.230469 121.496094 339.863281 C 113.183594 333.136719 113.929688 328.71875 112.117188 332.914062 C 107.75 343.023438 103.617188 354.574219 102.472656 365.929688 C 101.03125 380.183594 104.914062 394.007812 115.125 404.214844 C 122.226562 411.3125 132.855469 415.582031 142.992188 414.714844 C 167.824219 412.59375 193.660156 396.851562 209.113281 377.867188 C 216.945312 368.242188 223.46875 358.0625 230.019531 347.527344 C 258.117188 302.292969 281.589844 247.191406 298.21875 196.601562 C 306.28125 172.066406 312.933594 147.285156 318.21875 122.113281 C 319.25 117.222656 320.402344 111.707031 320.765625 107.128906 C 320.789062 106.816406 320.351562 106.777344 319.648438 106.792969 L 245 107.804688 C 244.171875 107.816406 243.828125 108.074219 243.683594 108.847656 C 240.226562 127.4375 229.992188 144.0625 214.742188 155.242188 C 194.191406 170.3125 166.621094 172.792969 146.015625 156.753906 C 139.253906 151.496094 134.652344 144.855469 130.449219 137.507812 C 125.535156 128.914062 123.402344 119.695312 123.847656 109.671875 C 125.113281 81.265625 143.558594 53.117188 167.804688 38.734375 C 172.816406 35.761719 177.828125 33.089844 183.535156 31.914062 C 188.539062 30.882812 193.753906 30.46875 198.875 30.53125 C 204.929688 30.609375 210.539062 30.667969 216.566406 30.574219 L 246.226562 30.117188 L 474.464844 29.691406 C 482.777344 29.679688 490.253906 32.027344 495.710938 38.648438 C 499.441406 43.167969 502.792969 48.660156 504.167969 54.613281 C 505.871094 62.011719 506.035156 69.53125 505.121094 77.039062 C 503.910156 86.996094 498.476562 95.503906 490.542969 101.441406 C 487.355469 103.828125 483.738281 106.34375 479.570312 106.398438 L 439.832031 106.957031 C 439.136719 106.964844 438.25 106.957031 438.035156 107.332031 C 437.820312 107.703125 437.519531 108.800781 437.597656 109.429688 L 457.695312 264.324219 C 458.011719 266.773438 460.28125 267.675781 462.121094 267.613281 C 464.414062 267.527344 465.050781 265.957031 465.945312 263.929688 L 533.144531 112.539062 L 534.335938 109.027344 C 534.449219 108.699219 534.621094 108.246094 534.691406 108.03125 C 534.742188 107.890625 534.113281 107.832031 533.890625 107.746094 C 527.339844 105.210938 521.996094 100.5625 518.339844 94.308594 C 509.496094 79.214844 509.335938 59.796875 518.609375 44.792969 C 523.574219 36.761719 532.101562 30.308594 541.824219 30.292969 C 569.140625 30.25 595.9375 29.226562 623.410156 30.402344 C 632.105469 30.773438 639.929688 41.195312 642.929688 48.101562 C 644.949219 52.734375 644.898438 56.789062 644.941406 61.265625 C 645.113281 78.449219 635.949219 99.199219 619.746094 106.777344 C 616.960938 108.082031 616.113281 109.679688 616.199219 112.882812 L 617.660156 167.5625 L 618.15625 181.652344 L 621.808594 263.1875 C 621.90625 265.449219 621.097656 267.296875 623.703125 268.199219 C 625.035156 268.65625 627.113281 268.886719 628.417969 267.039062 L 717.808594 139.820312 L 735.171875 111.90625 C 735.550781 111.300781 735.832031 110.179688 735.808594 109.636719 C 735.789062 109.09375 734.886719 108.105469 734.183594 108.089844 L 679.578125 106.90625 C 675.96875 106.828125 672.273438 106.742188 669.273438 104.25 C 658.355469 95.183594 651.328125 81.5 650.691406 67.203125 C 650.339844 59.363281 651.4375 52.214844 655.269531 45.300781 C 658.660156 39.167969 665.269531 31.375 672.816406 31.160156 C 672.816406 31.160156 1086.359375 31.972656 1089.746094 31.714844 C 1097.148438 31.15625 1104.4375 31.769531 1111.261719 34.929688 C 1126.664062 42.054688 1137.792969 58.730469 1144.449219 73.910156 C 1153.824219 95.253906 1157.785156 118.347656 1156.960938 141.761719 C 1159.488281 152.421875 1159.058594 163.007812 1155.433594 173.421875 C 1147.695312 195.648438 1130.445312 213.5625 1108.417969 221.933594 C 1081.796875 232.050781 1049.109375 222.445312 1042.421875 191.835938 C 1039.765625 179.6875 1041.476562 167.234375 1046.53125 155.78125 C 1049.324219 149.449219 1052.511719 143.386719 1057.105469 138.28125 C 1059.726562 135.367188 1053.664062 132.378906 1051.351562 131.40625 C 1035.023438 124.492188 1016.929688 122.929688 999.371094 126.167969 C 966.375 132.25 935.738281 155.40625 913.144531 179.367188 C 895.9375 197.617188 882.011719 218.359375 870.296875 240.507812 C 853.503906 272.269531 845.40625 289.265625 841.992188 326.117188 C 839.886719 348.894531 842.449219 375.878906 853.75 396.105469 C 858.71875 405 864.949219 413.511719 873.761719 418.898438 C 890.761719 429.277344 917.199219 430.886719 934.527344 422.828125 C 953.867188 413.839844 978.097656 397.496094 995.148438 364.734375 C 999.53125 356.308594 1006.589844 342.980469 1009.605469 334.046875 C 1009.710938 333.738281 1009.828125 332.902344 1009.570312 332.792969 C 1009.308594 332.6875 1008.585938 332.5 1008.285156 332.492188 L 981.722656 332.078125 C 981.164062 332.070312 979.902344 331.984375 979.6875 332.386719 L 978.90625 333.832031 C 971.875 346.820312 961.800781 357.777344 949.082031 365.328125 C 938.457031 371.628906 926.601562 375.277344 914.433594 374.789062 C 892.886719 373.9375 875.859375 358.394531 873.125 337.019531 C 868.105469 297.890625 904.039062 257.183594 942.339844 256.660156 L 1062.097656 255.003906 C 1069.695312 254.898438 1076.667969 255.609375 1083.613281 258.070312 C 1089.402344 260.128906 1093.480469 263.644531 1097.765625 267.777344 C 1102.476562 272.316406 1105.410156 277.675781 1106.785156 284.308594 C 1108.707031 293.585938 1108.160156 302.917969 1107.035156 312.402344 C 1106.320312 318.441406 1105.734375 324.039062 1104.230469 329.984375 C 1101.351562 341.351562 1097.757812 352.277344 1093.308594 363.242188 C 1077.363281 402.542969 1055.101562 443.273438 1024.261719 481.929688 C 1004.542969 506.648438 964.078125 538.171875 899.804688 538.023438 C 877.070312 537.972656 855.21875 535.585938 834.15625 527.464844 C 822.953125 523.144531 813.578125 516.785156 803.8125 510.074219 C 789.921875 500.523438 777.742188 489.492188 768.152344 475.367188 C 759.085938 462.023438 752.046875 447.578125 746.964844 432.128906 C 729.570312 379.230469 732.601562 320.574219 749.285156 267.183594 C 749.285156 267.183594 611.898438 509.792969 609.804688 513.496094 C 604.691406 522.558594 597.433594 538.378906 578.972656 538.378906 C 565.820312 538.378906 559.554688 530.328125 554.785156 512.859375 C 552.234375 503.519531 525.097656 342.121094 525.097656 342.121094 L 414.125 520.070312 C 408.214844 529.183594 404.136719 539.015625 389.9375 538.371094 C 369.992188 537.46875 369.25 514.742188 367.265625 503.46875 C 365.960938 496.082031 349.671875 330.867188 349.671875 330.867188 C 279.269531 471 229.5 505.144531 203.890625 518.660156 C 188.296875 526.890625 164.78125 537.347656 128.601562 537.621094 C 58.113281 538.15625 20.417969 480.957031 19.050781 393.820312 Z M 19.046875 393.835938 " fill-opacity="1" fill-rule="nonzero"/></g></g></svg>